<svg width="35" height="35" viewBox="0 0 35 35" fill="none" xmlns="http://www.w3.org/2000/svg">
<path d="M0 6.125C0 2.74226 2.74226 0 6.125 0H28.875C32.2577 0 35 2.74226 35 6.125V28.875C35 32.2577 32.2577 35 28.875 35H6.125C2.74226 35 0 32.2577 0 28.875V6.125Z" fill="white"/>
<path d="M17.8027 24.5625C17.8399 24.5625 17.8583 24.5811 17.8584 24.6182C18.0079 24.6182 18.1389 24.6374 18.251 24.6748C18.2883 24.6748 18.3259 24.6931 18.3633 24.7305C18.5501 24.8426 18.6994 24.9736 18.8115 25.123V25.1787C18.8115 25.2161 18.8308 25.2536 18.8682 25.291V25.3477C18.9054 25.4596 18.9238 25.5533 18.9238 25.6279L18.8682 28.374H15V24.5625H17.8027Z" fill="#1717CC"/>
<path d="M18.251 5C18.4377 5 18.5871 5.05603 18.6992 5.16797C18.8113 5.24271 18.8672 5.35541 18.8672 5.50488V21.4795C18.9046 21.7037 18.7928 21.9098 18.5312 22.0967C18.3071 22.2834 18.0266 22.377 17.6904 22.377H15V5H18.251Z" fill="#1717CC"/>
</svg>