<svg width="268" height="23" viewBox="0 0 268 23" fill="none" xmlns="http://www.w3.org/2000/svg">
<rect width="268" height="23" rx="2" fill="#0080FF"/>
<path d="M24.3218 15.6777C23.7417 15.9785 23.0202 16.1289 22.1572 16.1289C21.04 16.1289 20.1449 15.7762 19.4717 15.0708C18.7985 14.3654 18.4619 13.4398 18.4619 12.2939C18.4619 11.0622 18.8397 10.0667 19.5952 9.30762C20.3543 8.5485 21.3122 8.16895 22.4688 8.16895C23.2135 8.16895 23.8312 8.27458 24.3218 8.48584V9.75342C23.8026 9.44548 23.2297 9.2915 22.603 9.2915C21.7687 9.2915 21.092 9.55827 20.5728 10.0918C20.0571 10.6253 19.7993 11.3379 19.7993 12.2295C19.7993 13.0781 20.041 13.7549 20.5244 14.2598C21.0078 14.7611 21.6434 15.0117 22.4312 15.0117C23.158 15.0117 23.7882 14.8398 24.3218 14.4961V15.6777ZM31.1484 8.29785L28.624 13.2017V16H27.3457V13.2285L24.8857 8.29785H26.3413L27.856 11.6011C27.8739 11.6405 27.9276 11.7891 28.0171 12.0469H28.0332C28.0654 11.9323 28.1245 11.7837 28.2104 11.6011L29.7949 8.29785H31.1484ZM32.1313 16V8.29785H34.5752C35.32 8.29785 35.909 8.46077 36.3423 8.78662C36.7791 9.11247 36.9976 9.53678 36.9976 10.0596C36.9976 10.4964 36.874 10.876 36.627 11.1982C36.3799 11.5205 36.0379 11.7497 35.6011 11.8857V11.9072C36.131 11.9681 36.5535 12.165 36.8687 12.498C37.1873 12.8275 37.3467 13.2572 37.3467 13.7871C37.3467 14.446 37.0871 14.9795 36.5679 15.3877C36.0487 15.7959 35.3934 16 34.6021 16H32.1313ZM33.4043 9.32373V11.5151H34.2314C34.6755 11.5151 35.0228 11.4113 35.2734 11.2036C35.5277 10.9924 35.6548 10.6951 35.6548 10.312C35.6548 9.65316 35.2144 9.32373 34.3335 9.32373H33.4043ZM33.4043 12.541V14.9795H34.4946C34.9709 14.9795 35.3379 14.8703 35.5957 14.6519C35.8571 14.4299 35.9878 14.1255 35.9878 13.7388C35.9878 12.9403 35.4346 12.541 34.3281 12.541H33.4043ZM43.1045 16H38.7808V8.29785H42.9326V9.38281H40.0591V11.5635H42.707V12.6431H40.0591V14.9204H43.1045V16ZM50.4253 16H48.9321L47.7021 13.9375C47.5911 13.7477 47.4819 13.5866 47.3745 13.4541C47.2707 13.318 47.1632 13.207 47.0522 13.1211C46.9448 13.0352 46.8267 12.9725 46.6978 12.9331C46.5688 12.8937 46.4238 12.874 46.2627 12.874H45.7471V16H44.4741V8.29785H47.0093C47.3709 8.29785 47.7039 8.34082 48.0083 8.42676C48.3127 8.5127 48.5776 8.64339 48.8032 8.81885C49.0288 8.99072 49.2043 9.20736 49.3296 9.46875C49.4585 9.72656 49.5229 10.0291 49.5229 10.3765C49.5229 10.6486 49.4818 10.8993 49.3994 11.1284C49.3206 11.354 49.2061 11.5563 49.0557 11.7354C48.9089 11.9108 48.7298 12.0612 48.5186 12.1865C48.3109 12.3118 48.0763 12.4085 47.8149 12.4766V12.498C47.9546 12.5768 48.0763 12.6646 48.1802 12.7612C48.284 12.8543 48.3825 12.951 48.4756 13.0513C48.5687 13.1515 48.66 13.2661 48.7495 13.395C48.8426 13.5203 48.9447 13.6672 49.0557 13.8354L50.4253 16ZM45.7471 9.33447V11.8374H46.8105C47.0075 11.8374 47.1883 11.807 47.353 11.7461C47.5213 11.6852 47.6663 11.5975 47.7881 11.4829C47.9098 11.3683 48.0047 11.2287 48.0728 11.064C48.1408 10.8993 48.1748 10.7148 48.1748 10.5107C48.1748 10.1419 48.0584 9.85368 47.8257 9.646C47.5929 9.43831 47.2581 9.33447 46.8213 9.33447H45.7471ZM62.6284 16H61.3608V11.0156C61.3608 10.6074 61.3859 10.1079 61.436 9.51709H61.4146C61.3358 9.85368 61.266 10.0954 61.2051 10.2422L58.9062 16H58.0254L55.7212 10.2852C55.6567 10.1169 55.5887 9.86084 55.5171 9.51709H55.4956C55.5243 9.82503 55.5386 10.3281 55.5386 11.0264V16H54.3569V8.29785H56.1562L58.1812 13.4272C58.3351 13.8211 58.4354 14.1147 58.4819 14.3081H58.5088C58.6413 13.9035 58.7487 13.6027 58.8311 13.4058L60.8936 8.29785H62.6284V16ZM67.7041 16.1289C66.5941 16.1289 65.7043 15.769 65.0347 15.0493C64.3687 14.3296 64.0356 13.3932 64.0356 12.2402C64.0356 11.0013 64.3758 10.013 65.0562 9.27539C65.7365 8.53776 66.6603 8.16895 67.8276 8.16895C68.909 8.16895 69.7791 8.52702 70.438 9.24316C71.1004 9.95931 71.4316 10.8957 71.4316 12.0522C71.4316 13.3091 71.0933 14.3027 70.4165 15.0332C69.7397 15.7637 68.8356 16.1289 67.7041 16.1289ZM67.7632 9.2915C67.0578 9.2915 66.4831 9.55469 66.0391 10.0811C65.5986 10.6074 65.3784 11.3003 65.3784 12.1597C65.3784 13.0155 65.5933 13.7048 66.0229 14.2275C66.4526 14.7503 67.0148 15.0117 67.7095 15.0117C68.4471 15.0117 69.029 14.7629 69.4551 14.2651C69.8812 13.7674 70.0942 13.071 70.0942 12.1758C70.0942 11.2555 69.8866 10.5448 69.4712 10.0435C69.0594 9.54215 68.4901 9.2915 67.7632 9.2915ZM79.3755 16H77.979L74.2998 10.3389C74.2067 10.1956 74.1297 10.047 74.0688 9.89307H74.0366C74.0653 10.0578 74.0796 10.4105 74.0796 10.9512V16H72.8442V8.29785H74.332L77.8877 13.8247C78.0381 14.0539 78.1348 14.2114 78.1777 14.2974H78.1992C78.1634 14.0933 78.1455 13.7477 78.1455 13.2607V8.29785H79.3755V16ZM81.2876 16V8.29785H83.5112C86.3507 8.29785 87.7705 9.54932 87.7705 12.0522C87.7705 13.241 87.3766 14.1971 86.5889 14.9204C85.8011 15.6401 84.7448 16 83.4199 16H81.2876ZM82.5605 9.38281V14.9204H83.5811C84.4798 14.9204 85.1781 14.6733 85.6758 14.1792C86.1771 13.6851 86.4277 12.9868 86.4277 12.0845C86.4277 10.2834 85.495 9.38281 83.6294 9.38281H82.5605ZM95.3384 16H93.9365L93.2437 14.0396H90.2144L89.5483 16H88.1519L91.0361 8.29785H92.4756L95.3384 16ZM92.9053 12.9976L91.8364 9.92529C91.8042 9.82503 91.7702 9.6639 91.7344 9.44189H91.7129C91.6807 9.646 91.6449 9.80713 91.6055 9.92529L90.5474 12.9976H92.9053ZM100.93 8.29785L98.4053 13.2017V16H97.127V13.2285L94.667 8.29785H96.1226L97.6372 11.6011C97.6551 11.6405 97.7088 11.7891 97.7983 12.0469H97.8145C97.8467 11.9323 97.9058 11.7837 97.9917 11.6011L99.5762 8.29785H100.93ZM104.587 15.6938V14.3779C104.706 14.4854 104.845 14.582 105.006 14.668C105.171 14.7539 105.345 14.8273 105.527 14.8882C105.71 14.9455 105.893 14.9902 106.075 15.0225C106.258 15.0547 106.426 15.0708 106.58 15.0708C107.117 15.0708 107.516 14.9813 107.778 14.8022C108.043 14.6232 108.175 14.3636 108.175 14.0234C108.175 13.8408 108.131 13.6833 108.041 13.5508C107.955 13.4147 107.833 13.2912 107.676 13.1802C107.518 13.0692 107.332 12.9635 107.117 12.8633C106.906 12.7594 106.679 12.652 106.435 12.541C106.174 12.4014 105.93 12.2599 105.705 12.1167C105.479 11.9735 105.282 11.8159 105.114 11.644C104.949 11.4686 104.818 11.2716 104.722 11.0532C104.629 10.8348 104.582 10.5788 104.582 10.2852C104.582 9.9235 104.663 9.61019 104.824 9.34521C104.988 9.07666 105.203 8.85645 105.468 8.68457C105.737 8.50911 106.041 8.38021 106.381 8.29785C106.722 8.21191 107.069 8.16895 107.423 8.16895C108.229 8.16895 108.816 8.26025 109.185 8.44287V9.70508C108.748 9.38997 108.186 9.23242 107.499 9.23242C107.309 9.23242 107.119 9.25033 106.929 9.28613C106.743 9.32194 106.575 9.38102 106.424 9.46338C106.278 9.54574 106.158 9.65137 106.064 9.78027C105.971 9.90918 105.925 10.0649 105.925 10.2476C105.925 10.4194 105.961 10.568 106.032 10.6934C106.104 10.8187 106.208 10.9333 106.344 11.0371C106.483 11.141 106.652 11.243 106.849 11.3433C107.049 11.4399 107.28 11.5456 107.542 11.6602C107.81 11.7998 108.062 11.9466 108.299 12.1006C108.539 12.2546 108.748 12.4246 108.927 12.6108C109.11 12.797 109.253 13.0047 109.357 13.2339C109.464 13.4595 109.518 13.7173 109.518 14.0073C109.518 14.3976 109.439 14.7271 109.282 14.9956C109.124 15.2642 108.911 15.4826 108.643 15.6509C108.378 15.8192 108.071 15.9409 107.724 16.0161C107.377 16.0913 107.01 16.1289 106.623 16.1289C106.494 16.1289 106.335 16.1182 106.145 16.0967C105.959 16.0788 105.767 16.0501 105.57 16.0107C105.373 15.9749 105.187 15.9302 105.012 15.8765C104.836 15.8228 104.695 15.7619 104.587 15.6938ZM117.263 16H115.861L115.168 14.0396H112.139L111.473 16H110.077L112.961 8.29785H114.4L117.263 16ZM114.83 12.9976L113.761 9.92529C113.729 9.82503 113.695 9.6639 113.659 9.44189H113.638C113.605 9.646 113.57 9.80713 113.53 9.92529L112.472 12.9976H114.83ZM122.591 16H118.327V8.29785H119.605V14.9204H122.591V16ZM128.032 16H123.708V8.29785H127.86V9.38281H124.987V11.5635H127.635V12.6431H124.987V14.9204H128.032V16ZM133.742 16H132.426V8.29785H133.742V16ZM135.289 15.6938V14.3779C135.407 14.4854 135.546 14.582 135.708 14.668C135.872 14.7539 136.046 14.8273 136.229 14.8882C136.411 14.9455 136.594 14.9902 136.776 15.0225C136.959 15.0547 137.127 15.0708 137.281 15.0708C137.818 15.0708 138.218 14.9813 138.479 14.8022C138.744 14.6232 138.876 14.3636 138.876 14.0234C138.876 13.8408 138.832 13.6833 138.742 13.5508C138.656 13.4147 138.535 13.2912 138.377 13.1802C138.219 13.0692 138.033 12.9635 137.818 12.8633C137.607 12.7594 137.38 12.652 137.136 12.541C136.875 12.4014 136.631 12.2599 136.406 12.1167C136.18 11.9735 135.983 11.8159 135.815 11.644C135.65 11.4686 135.52 11.2716 135.423 11.0532C135.33 10.8348 135.283 10.5788 135.283 10.2852C135.283 9.9235 135.364 9.61019 135.525 9.34521C135.69 9.07666 135.904 8.85645 136.169 8.68457C136.438 8.50911 136.742 8.38021 137.083 8.29785C137.423 8.21191 137.77 8.16895 138.125 8.16895C138.93 8.16895 139.517 8.26025 139.886 8.44287V9.70508C139.449 9.38997 138.887 9.23242 138.2 9.23242C138.01 9.23242 137.82 9.25033 137.63 9.28613C137.444 9.32194 137.276 9.38102 137.125 9.46338C136.979 9.54574 136.859 9.65137 136.766 9.78027C136.673 9.90918 136.626 10.0649 136.626 10.2476C136.626 10.4194 136.662 10.568 136.733 10.6934C136.805 10.8187 136.909 10.9333 137.045 11.0371C137.185 11.141 137.353 11.243 137.55 11.3433C137.75 11.4399 137.981 11.5456 138.243 11.6602C138.511 11.7998 138.764 11.9466 139 12.1006C139.24 12.2546 139.449 12.4246 139.628 12.6108C139.811 12.797 139.954 13.0047 140.058 13.2339C140.166 13.4595 140.219 13.7173 140.219 14.0073C140.219 14.3976 140.14 14.7271 139.983 14.9956C139.825 15.2642 139.612 15.4826 139.344 15.6509C139.079 15.8192 138.773 15.9409 138.425 16.0161C138.078 16.0913 137.711 16.1289 137.324 16.1289C137.195 16.1289 137.036 16.1182 136.846 16.0967C136.66 16.0788 136.468 16.0501 136.271 16.0107C136.075 15.9749 135.888 15.9302 135.713 15.8765C135.537 15.8228 135.396 15.7619 135.289 15.6938ZM148.931 16H144.667V8.29785H145.945V14.9204H148.931V16ZM151.359 16H150.043V8.29785H151.359V16ZM159.297 8.29785L156.531 16H155.103L152.385 8.29785H153.781L155.683 14.1416C155.743 14.3278 155.79 14.5444 155.822 14.7915H155.844C155.869 14.5874 155.921 14.3672 156 14.1309L157.944 8.29785H159.297ZM164.642 16H160.318V8.29785H164.47V9.38281H161.596V11.5635H164.244V12.6431H161.596V14.9204H164.642V16ZM171.796 13.4541H168.863V12.5356H171.796V13.4541ZM180.653 9.38281H177.774V11.6978H180.427V12.7773H177.774V16H176.496V8.29785H180.653V9.38281ZM186.292 16H182.028V8.29785H183.306V14.9204H186.292V16ZM194.027 16H192.625L191.932 14.0396H188.903L188.237 16H186.84L189.725 8.29785H191.164L194.027 16ZM191.594 12.9976L190.525 9.92529C190.493 9.82503 190.459 9.6639 190.423 9.44189H190.401C190.369 9.646 190.333 9.80713 190.294 9.92529L189.236 12.9976H191.594ZM199.248 9.38281H197.035V16H195.756V9.38281H193.549V8.29785H199.248V9.38281ZM205.902 15.957V17.1226H205.242V16C204.447 16 203.8 15.846 203.303 15.5381V14.3403C203.521 14.5301 203.817 14.6895 204.189 14.8184C204.565 14.9473 204.916 15.0117 205.242 15.0117V12.6216C204.397 12.2313 203.849 11.8714 203.598 11.542C203.351 11.2126 203.228 10.8223 203.228 10.3711C203.228 9.83757 203.417 9.37744 203.797 8.99072C204.176 8.60042 204.658 8.36589 205.242 8.28711V7.32031H205.902V8.26562C206.654 8.28711 207.174 8.38737 207.46 8.56641V9.71582C207.07 9.42936 206.55 9.27539 205.902 9.25391V11.73C206.69 12.0952 207.229 12.4497 207.519 12.7935C207.809 13.1372 207.954 13.5257 207.954 13.959C207.954 14.4854 207.773 14.9258 207.412 15.2803C207.05 15.6348 206.547 15.8604 205.902 15.957ZM205.242 11.4238V9.28076C204.973 9.33447 204.76 9.44906 204.603 9.62451C204.445 9.79997 204.366 10.013 204.366 10.2637C204.366 10.5286 204.431 10.7453 204.56 10.9136C204.688 11.0819 204.916 11.252 205.242 11.4238ZM205.902 12.9116V14.9795C206.511 14.8506 206.815 14.5337 206.815 14.0288C206.815 13.6063 206.511 13.2339 205.902 12.9116ZM209.227 15.7153V14.5444C209.728 14.9419 210.294 15.1406 210.924 15.1406C211.436 15.1406 211.845 15.0243 212.149 14.7915C212.457 14.5588 212.611 14.2437 212.611 13.8462C212.611 12.9725 211.943 12.5356 210.607 12.5356H210.011V11.5366H210.581C211.766 11.5366 212.358 11.1248 212.358 10.3013C212.358 9.54215 211.896 9.1626 210.973 9.1626C210.457 9.1626 209.972 9.34701 209.517 9.71582V8.60938C210.04 8.31576 210.658 8.16895 211.37 8.16895C212.054 8.16895 212.602 8.34082 213.014 8.68457C213.425 9.02832 213.631 9.46875 213.631 10.0059C213.631 11.0192 213.116 11.6709 212.084 11.9609V11.9824C212.639 12.0361 213.078 12.2313 213.4 12.5679C213.723 12.9009 213.884 13.318 213.884 13.8193C213.884 14.5104 213.624 15.069 213.105 15.4951C212.586 15.9176 211.902 16.1289 211.053 16.1289C210.291 16.1289 209.682 15.991 209.227 15.7153ZM217.649 16.1289C216.847 16.1289 216.22 15.8013 215.769 15.146C215.321 14.4907 215.098 13.5436 215.098 12.3047C215.098 10.944 215.332 9.91455 215.801 9.21631C216.27 8.51807 216.947 8.16895 217.832 8.16895C219.525 8.16895 220.372 9.48486 220.372 12.1167C220.372 13.4201 220.132 14.4155 219.652 15.103C219.176 15.7869 218.508 16.1289 217.649 16.1289ZM217.772 9.1626C216.838 9.1626 216.371 10.1921 216.371 12.251C216.371 14.1774 216.829 15.1406 217.746 15.1406C218.648 15.1406 219.099 14.1613 219.099 12.2026C219.099 10.1759 218.657 9.1626 217.772 9.1626ZM223.761 16.1289C222.959 16.1289 222.333 15.8013 221.881 15.146C221.434 14.4907 221.21 13.5436 221.21 12.3047C221.21 10.944 221.444 9.91455 221.914 9.21631C222.383 8.51807 223.059 8.16895 223.944 8.16895C225.638 8.16895 226.484 9.48486 226.484 12.1167C226.484 13.4201 226.244 14.4155 225.765 15.103C225.288 15.7869 224.621 16.1289 223.761 16.1289ZM223.885 9.1626C222.95 9.1626 222.483 10.1921 222.483 12.251C222.483 14.1774 222.941 15.1406 223.858 15.1406C224.76 15.1406 225.211 14.1613 225.211 12.2026C225.211 10.1759 224.769 9.1626 223.885 9.1626ZM234.058 16.1289C232.948 16.1289 232.058 15.769 231.388 15.0493C230.722 14.3296 230.389 13.3932 230.389 12.2402C230.389 11.0013 230.729 10.013 231.41 9.27539C232.09 8.53776 233.014 8.16895 234.181 8.16895C235.263 8.16895 236.133 8.52702 236.792 9.24316C237.454 9.95931 237.785 10.8957 237.785 12.0522C237.785 13.3091 237.447 14.3027 236.77 15.0332C236.093 15.7637 235.189 16.1289 234.058 16.1289ZM234.117 9.2915C233.411 9.2915 232.837 9.55469 232.393 10.0811C231.952 10.6074 231.732 11.3003 231.732 12.1597C231.732 13.0155 231.947 13.7048 232.376 14.2275C232.806 14.7503 233.368 15.0117 234.063 15.0117C234.801 15.0117 235.382 14.7629 235.809 14.2651C236.235 13.7674 236.448 13.071 236.448 12.1758C236.448 11.2555 236.24 10.5448 235.825 10.0435C235.413 9.54215 234.844 9.2915 234.117 9.2915ZM243.355 9.38281H240.476V11.6978H243.129V12.7773H240.476V16H239.198V8.29785H243.355V9.38281ZM248.887 9.38281H246.008V11.6978H248.662V12.7773H246.008V16H244.73V8.29785H248.887V9.38281Z" fill="white"/>
</svg>
