<svg xmlns="http://www.w3.org/2000/svg" width="1000" height="700" fill="none" viewBox="0 0 1000 700"><path fill="#FCFCFF" d="M0 0h1000v700H0z"/><path fill="#D5D5D5" d="M100 124c0-13.255 10.745-24 24-24h752c13.255 0 24 10.745 24 24v452c0 13.255-10.745 24-24 24H124c-13.255 0-24-10.745-24-24V124Z"/><path fill="#888" d="M98 414h804v164c0 13.255-10.745 24-24 24H122c-13.255 0-24-10.745-24-24V414Z"/><path fill="#F2F2F2" d="M507.249 455H148v28.954h359.249V455ZM851.485 500.954H148v19.303h703.485v-19.303ZM590.895 537.257H148v19.303h442.895v-19.303Z"/></svg>